<?xml version="1.0" encoding="utf-8"?>
<svg xmlns="http://www.w3.org/2000/svg">
<symbol id="user" viewBox="0 0 500 500">
<path d="M250 0C283.152 0 314.946 13.1696 338.388 36.6116C361.83 60.0537 375 91.8479 375 125C375 158.152 361.83 189.946 338.388 213.388C314.946 236.83 283.152 250 250 250C216.848 250 185.054 236.83 161.612 213.388C138.17 189.946 125 158.152 125 125C125 91.8479 138.17 60.0537 161.612 36.6116C185.054 13.1696 216.848 0 250 0ZM250 62.5C233.424 62.5 217.527 69.0848 205.806 80.8058C194.085 92.5268 187.5 108.424 187.5 125C187.5 141.576 194.085 157.473 205.806 169.194C217.527 180.915 233.424 187.5 250 187.5C266.576 187.5 282.473 180.915 294.194 169.194C305.915 157.473 312.5 141.576 312.5 125C312.5 108.424 305.915 92.5268 294.194 80.8058C282.473 69.0848 266.576 62.5 250 62.5ZM250 281.25C333.438 281.25 500 322.812 500 406.25V500H0V406.25C0 322.812 166.562 281.25 250 281.25ZM250 340.625C157.187 340.625 59.375 386.25 59.375 406.25V440.625H440.625V406.25C440.625 386.25 342.813 340.625 250 340.625Z" fill="currentColor"/>
</symbol>

	<symbol id="home" viewBox="0 0 500 526">
<path d="M210.929 13.7038C222.012 4.83307 235.786 0 249.982 0C264.179 0 277.952 4.83307 289.036 13.7038L476.536 163.704C491.357 175.561 500 193.525 500 212.525V463.204C500 479.78 493.415 495.677 481.694 507.398C469.973 519.119 454.076 525.704 437.5 525.704H312.5C305.396 525.704 298.583 522.882 293.56 517.858C288.536 512.835 285.714 506.022 285.714 498.918V311.418H214.286V498.918C214.286 506.022 211.464 512.835 206.44 517.858C201.417 522.882 194.604 525.704 187.5 525.704H62.5C45.924 525.704 30.0268 519.119 18.3058 507.398C6.5848 495.677 0 479.78 0 463.204V212.49C0 193.525 8.64286 175.561 23.4643 163.704L210.929 13.7038ZM255.571 55.5252C253.989 54.2618 252.025 53.5737 250 53.5737C247.975 53.5737 246.011 54.2618 244.429 55.5252L56.9286 205.525C55.8781 206.364 55.0307 207.429 54.4494 208.641C53.8681 209.853 53.568 211.181 53.5714 212.525V463.204C53.5714 468.132 57.5714 472.132 62.5 472.132H160.714V284.632C160.714 277.528 163.536 270.715 168.56 265.692C173.583 260.669 180.396 257.847 187.5 257.847H312.5C319.604 257.847 326.417 260.669 331.44 265.692C336.464 270.715 339.286 277.528 339.286 284.632V472.132H437.5C439.868 472.132 442.139 471.192 443.813 469.517C445.488 467.843 446.429 465.572 446.429 463.204V212.49C446.427 211.151 446.124 209.831 445.543 208.625C444.962 207.42 444.117 206.36 443.071 205.525L255.571 55.5252Z" fill="currentColor"/>
</symbol>

</svg>